<?xml version="1.0" encoding="UTF-8" standalone="no"?><!DOCTYPE svg PUBLIC "-//W3C//DTD SVG 1.1//EN" "http://www.w3.org/Graphics/SVG/1.1/DTD/svg11.dtd"><svg width="100%" height="100%" viewBox="0 0 1191 842" version="1.1" xmlns="http://www.w3.org/2000/svg" xmlns:xlink="http://www.w3.org/1999/xlink" xml:space="preserve" xmlns:serif="http://www.serif.com/" style="fill-rule:evenodd;clip-rule:evenodd;stroke-linejoin:round;stroke-miterlimit:2;"><g><rect x="807.879" y="511.821" width="163.489" height="97.599" style="fill:#fff;"/><g><path d="M360.96,212.095c29.232,25.446 25.363,54.043 25.363,88.325c-0,56.103 1.483,62.39 -11.953,85.819c-2.607,4.547 7.402,6.254 11.386,35.928c0.518,3.862 1.689,108.419 -0.661,120.263c-7.327,36.924 -38.206,59.446 -71.827,59.846c-8.299,0.099 -8.249,-0.004 -103.745,-0.008c-0.481,-0 -5.609,-0 -6.003,-0.402c-0.369,-0.375 -0.335,-0.441 -0.334,-403.685c0,-2.15 -0.515,-4.051 1.815,-4.07c9.083,-0.075 102.158,-0.846 113.535,0.227c22.781,2.149 34.865,11.425 42.424,17.758l-55.494,215.742c-0.489,-0.309 -3.831,-2.418 -6.561,-3.032c-4.433,-0.997 -21.428,-0.502 -21.736,-0.371c-0.793,0.338 -0.702,0.7 -0.702,83.472c0,18.922 -0.577,20.421 2.216,20.436c16.573,0.087 21.689,0.416 26.806,-3.478c8.874,-6.753 7.584,-10.413 7.584,-49.284c-0,-38.502 1.153,-40.097 -7.608,-47.744l55.494,-215.742l-51.852,62.483c-4.063,-5.012 -8.045,-6.972 -15.389,-7.065c-16.083,-0.203 -16.471,-0.536 -17.071,0.692c-0.348,0.712 -0.205,81.374 -0.075,81.782c0.605,1.903 21.13,0.697 21.621,0.595c17.832,-3.697 14.879,-24.294 14.879,-24.603c0,-44.638 0.61,-45.316 -3.965,-51.402l51.852,-62.483Z" style="fill:#fff;fill-opacity:1;"/><path d="M582.776,534.987c1.301,27.41 4.156,65.921 3.35,66.863c-0.68,0.795 -75.171,0.742 -75.904,0.033c-1.153,-1.115 -1.857,-63.34 -3.118,-64.527c-0.65,-0.612 -25.176,-0.788 -25.835,0.127c-1.001,1.389 -1.665,63.892 -3.246,64.585c-0.822,0.36 -74.264,0.529 -75.386,-0.083c-0.208,-0.113 -0.475,-0.208 0.718,-22.668c0.921,-17.323 8.648,-162.723 12.282,-216.493c0.092,-1.363 7.356,-134.714 8.256,-147.346c1.344,-18.854 -0.767,-21.365 3.639,-21.369c10.769,-0.011 133.313,-0.133 134.607,0.013c2.077,0.234 1.169,1.372 2.883,25.865c0.733,10.475 16.754,300.199 17.754,315l-97.737,-109.011c-0.515,24.901 -2.265,37.101 -0.38,37.61c0.16,0.043 18.876,0.302 19.482,-0.161c0.944,-0.722 0.472,-1.061 -1.166,-49.499c-0.394,-11.663 -4.896,-144.833 -5.618,-145.763c-0.693,-0.894 -6.205,-1.003 -6.413,0.729c-0.135,1.13 -4.23,119.593 -5.906,157.085l97.737,109.011Z" style="fill:#fff;fill-opacity:1;"/><path d="M681.235,531.601c13.6,11.509 30.827,3.338 30.991,-14.673c0.381,-41.662 -1.149,-48.139 -32.094,-79.692c-3.663,-3.735 -23.107,-23.561 -44.936,-47.514c-38.803,-42.579 -32.847,-98.118 -32.847,-113.358c-0,-3.964 -4.946,-48.826 35.924,-76.315c21.289,-14.319 42.099,-13.586 65.91,-13.278c48.906,0.634 80.591,36.756 81.342,80.57c0.012,0.728 0.006,62.351 0.005,62.404c-0.023,2.473 -1.373,2.023 -24.965,2.023c-47.25,0 -47.451,0.089 -48.03,-0.584c-1.546,-1.798 1.718,-51.788 -1.918,-59.928c-7.837,-17.547 -34.811,-13.857 -35.007,8.115c-0.435,48.856 3.112,50.301 40.995,89.801c38.428,40.069 42.825,46.446 45.941,50.965c24.263,35.193 23.542,68.611 22.914,108.82c-0.819,52.45 -41.377,80.809 -78.245,80.796c-30.273,-0.011 -46.392,2.288 -69.777,-13.374c-41.361,-27.701 -35.089,-76.544 -35.089,-85.464c-0,-44.872 -0.088,-45.107 0.564,-45.522c0.512,-0.325 71.371,-0.618 72.187,0.153c2.059,1.943 -1.744,51.888 2.189,60.323c1.076,2.307 1.263,2.155 3.946,5.733Z" style="fill:#fff;fill-opacity:1;"/><path d="M923.698,493.389c-116.39,-0 -116.619,0.052 -117.059,-0.414c-0.291,-0.308 -0.26,-0.334 -0.26,-292.573c0,-2.372 -0.687,-6.24 1.511,-6.285c0.574,-0.012 161.551,-0.01 161.697,-0.001c1.914,0.115 1.567,0.858 1.567,18.414c0,34.724 0.127,35.051 -0.833,35.304c-1.64,0.432 -89.692,-0.403 -90.344,0.449c-0.428,0.558 -0.382,0.603 -0.381,63.467c0,0.297 -1.036,5.089 1.994,5.11c26.416,0.184 76.487,-0.485 77.317,0.461c1.02,1.162 0.32,47.618 0.258,51.759c-0.029,1.903 -1.45,1.496 -19.68,1.496c-58.897,-0 -59.316,-0.084 -59.684,0.595c-0.224,0.413 -0.207,0.425 -0.205,63.503c0,0.38 0,4.469 0.671,4.727c1.372,0.528 89.455,-0.331 90.491,0.461c0.727,0.556 0.508,52.748 0.119,53.133c-0.738,0.73 -16.154,0.172 -47.179,0.395Z" style="fill:#fff;fill-opacity:1;"/></g></g></svg>