<?xml version="1.0" encoding="UTF-8" standalone="no"?><!DOCTYPE svg PUBLIC "-//W3C//DTD SVG 1.1//EN" "http://www.w3.org/Graphics/SVG/1.1/DTD/svg11.dtd"><svg width="100%" height="100%" viewBox="0 0 3780 1308" version="1.1" xmlns="http://www.w3.org/2000/svg" xmlns:xlink="http://www.w3.org/1999/xlink" xml:space="preserve" xmlns:serif="http://www.serif.com/" style="fill-rule:evenodd;clip-rule:evenodd;stroke-linejoin:round;stroke-miterlimit:2;"><g><g id="Design-sem-nome--12-.png" serif:id="Design sem nome (12).png"><path d="M71.577,95.81l11.824,1.361l9.195,1.214l10.67,1.591c24.868,4.069 24.7,4.212 40.61,7.351c7.853,1.865 15.706,3.73 23.559,5.595l13.277,3.444l9.224,2.538l9.147,2.813c6.197,2.004 12.395,4.007 18.592,6.011l14.126,4.848l13.206,5.103l1.576,0.658l13.097,5.357c20.762,9.212 20.703,9.115 28.488,12.736l10.509,5.253l7.877,3.954l6.724,3.604l6.754,3.624c123.094,72.279 182.904,134.194 252.96,238.716c6.94,10.355 16.214,-11.478 21.237,-20.796c35.966,-66.719 43.348,-93.297 54.607,-128.454l4.421,-16.003c11.296,-47.791 12.619,-56.12 17.926,-114.154c0.338,-8.333 0.675,-16.666 1.013,-24.999c0.566,-12.448 -3.205,-16.197 3.965,-16.213c53.06,-0.123 661.398,-1.535 663.251,0.878c2.514,3.271 -3.424,79.456 -14.435,128.265c-71.218,315.677 -324.373,425.794 -320.627,435.269c0.968,2.449 13.537,9.717 14.791,10.442c6.092,3.145 12.184,6.29 18.276,9.436l5.248,2.659c4.386,2.183 8.772,4.366 13.158,6.55l1.558,0.842c15.176,6.976 14.953,6.84 30.005,13.654c7.46,3.033 14.921,6.066 22.381,9.099l8.199,3.094l2.334,0.81l12.125,4.447c22.788,7.142 22.487,7.074 45.624,13.031c1.839,0.515 3.677,1.031 5.516,1.546c15.841,3.46 15.557,3.395 31.56,6.441l14.289,2.273l10.503,1.444l11.861,1.285l1.301,0.086l11.835,1.17l11.87,0.912l7.849,0.522c3.891,0.099 23.693,0.604 48.64,1.083c7.666,1.603 6.581,3.664 6.562,11.525c-0.325,139.384 -0.4,139.103 -0.397,278.619c0.005,267.55 0.21,267.498 -0.222,269.164c-0.197,0.761 -0.682,0.675 -291.108,0.674c-27.582,-0 -29.333,6.205 -52.641,-8.19c-159.079,-98.249 -216.672,-209.007 -232.803,-225.898c-1.621,-1.697 -5.316,-3.832 -19.102,22.263c-84.527,160 -62.343,201.204 -72.783,211.311c-1.119,1.083 -663.645,0.377 -663.955,0.375c-0.433,-3.263 -0.097,-2.978 0.874,-10.694c0.221,-1.385 0.327,-1.33 3.08,-17.266c0.881,-4.068 0.619,-3.952 1.465,-7.859c0.249,-1.149 0.24,-1.062 3.244,-14.333c14.373,-57.496 38.245,-149.103 124.733,-258.78l5.212,-6.603c5.386,-6.451 10.773,-12.902 16.159,-19.353l8.796,-9.545c20.89,-21.687 39.979,-43.56 93.304,-84.036l9.22,-6.565c59.012,-40.07 69.921,-40.479 61.104,-46.952c-10.866,-7.978 -73.87,-41.013 -115.42,-55.181c-135.27,-46.128 -215.452,-23.761 -218.11,-36.094c-0.254,-1.18 0.476,-469.035 -0.155,-612.462c-0.02,-4.471 -1.745,-29.291 2.915,-29.344c34.34,-0.392 34.164,0.221 68.334,4.834l286.528,630.263l0.129,1.424l-0.101,1.749l-1.314,-0.113c-4.15,1.697 -8.457,1.441 -9.2,1.397l-1.38,-2.111c-29.511,3.553 -29.313,2.571 -59.103,5.434c-6.469,0.622 -3.672,5.152 -0.053,5.788c4.269,0.75 4.295,0.077 53.901,5.496c6.702,-6.198 7.769,-2.258 19.973,0.292c2.09,0.437 2.596,-0.427 3.399,1.782c0.249,0.685 -1.369,1.194 -1.12,1.88c13.383,3.865 13.045,3.971 26.369,7.546c1.033,-0.893 2.899,-2.508 17.004,1.491c2.631,0.746 1.08,1.488 0.056,3.819c45.286,18.427 198.071,76.683 248.229,279.715c10.732,43.439 8.37,100.708 14.228,61.628c1.806,-12.05 3.268,-80.551 56.134,-167.857c37.909,-62.605 95.23,-104.167 105.15,-111.36c59.261,-42.968 137.869,-63.29 150.625,-66.588l-0.705,-1.074c2.505,-6.68 10.576,-1.379 11.336,-0.879c34.776,-4.453 34.683,-3.831 69.568,-7.038c4.997,-0.459 2.402,-5.142 -1.372,-3.623c-6.363,2.562 -64.094,-8.254 -69.616,-9.289c-117.191,-21.956 -292.751,-133.438 -313.261,-339.22c-0.195,-1.956 -3.997,-40.099 -6.894,-23.588c-6.028,34.347 -5.428,119.676 -94.697,224.97c-28.077,33.118 -69.927,65.146 -96.722,80.501c-52.755,30.232 -85.958,38.843 -120.564,47.829l-286.528,-630.263l269.407,649.326c11.257,1.501 11.108,1.252 22.253,3.954c-0.249,-0.685 1.369,-1.194 1.12,-1.88c-0.803,-2.209 -1.309,-1.345 -3.399,-1.782c-12.203,-2.55 -13.271,-6.49 -19.973,-0.292l-269.407,-649.326l318.029,660.826c5.687,1.77 11.374,3.54 17.06,5.31c1.024,-2.331 2.575,-3.073 -0.056,-3.819c-14.105,-3.999 -15.971,-2.384 -17.004,-1.491l-318.029,-660.826l286.528,630.263l-11.866,2.345l1.38,2.111c0.743,0.044 5.05,0.3 9.2,-1.397l1.314,0.113l0.101,-1.749l-0.129,-1.424l-286.528,-630.263l920.086,659.721c-0.76,-0.499 -8.832,-5.801 -11.336,0.879l0.705,1.074l10.632,-1.954l-920.086,-659.721Z" style="fill:#fff;fill-opacity:1;"/><path d="M1297.827,742.395l3.946,-0.056c-1.315,0.019 -2.631,0.038 -3.946,0.056Z" style="fill:#fff;fill-opacity:0.01;"/><path d="M66.327,91.889c1.308,0.371 1.214,-0.287 2.552,0.093c2.201,0.624 -0.755,-0.027 -2.552,-0.093Z" style="fill:#fff;fill-opacity:0.01;"/></g><g><path d="M2879.775,640.963l-33.588,0c-14.558,-3.138 -158.495,-17.521 -177.575,-207.05c-20.149,-200.156 124.244,-308.149 249.411,-260.278c55.917,21.386 68.395,66.578 68.006,38.524c-0.234,-16.854 -2.867,-206.694 0.959,-210.688c0.339,-0.354 75.896,-3.93 76.002,2.489c0.083,5.007 0.093,620.06 0.001,622.4c-0.248,6.325 -71.406,6.097 -71.544,0.093c-0.865,-37.434 4.86,-60.234 -7.215,-43.203c-32.097,45.27 -79.694,53.227 -104.458,57.712l61.727,-89.566c8.637,-8.356 63.609,-44.909 48.798,-189.348c-16.938,-165.19 -203.708,-186.923 -237.616,-24.352c-32.954,157.996 61.354,301.047 188.818,213.7l-61.727,89.566Z" style="fill:#fff;fill-opacity:1;"/><path d="M3582.886,640.963l-33.588,0c-2.363,-0.301 -221.101,-3.513 -195.671,-281.127c25.06,-273.568 414.824,-253.905 425.08,8.99c8.084,207.227 -84.318,253.157 -195.821,272.137l83.971,-113.907c0.376,-0.618 20.1,-24.601 28.73,-70.685c48.156,-257.18 -223.962,-306.959 -259.797,-107.47c-35.904,199.874 122.053,297.457 231.067,178.156l-83.971,113.907Z" style="fill:#fff;fill-opacity:1;"/><path d="M1701.951,640.963l-2.239,0c-67.271,-5.703 -176.234,4.086 -207.8,-137.833c-2.786,-12.526 4.458,-10.168 37.681,-15.12c24.398,-3.636 33.892,-15.224 39.637,8.679c26.731,111.216 184.217,93.238 212.486,37.432c65.17,-128.65 -239.552,-63.202 -275.479,-209.767c-44.3,-180.727 287.427,-221.512 337.676,-65.482c9.509,29.527 6.538,33.112 -3.068,34.444c-62.116,8.613 -64.375,9.249 -65.668,4.147c-27.736,-109.477 -174.408,-73.452 -193.152,-31.11c-36.3,81.998 137.502,82.611 225.366,126.802c86.883,43.698 109.814,220.948 -105.441,247.808Z" style="fill:#fff;fill-opacity:1;"/><path d="M2375.953,640.963l-31.349,0c-141.672,-23.094 -140.61,-102.826 -140.662,-202.646c-0.136,-262.251 0.172,-264.496 3.994,-264.775c0.872,-0.064 68.399,-0.119 69.59,0.042c8.878,1.195 -1.295,240.114 6.208,320.749c8.997,96.695 130.647,98.258 181.622,42.355c57.747,-63.328 21.192,-301.102 31.621,-360.324c0.835,-4.742 75.865,-4.342 76.796,-0.374c1.332,5.677 0.401,412.35 0.319,448.206c-0.02,8.893 -29.686,6.102 -63.772,6.018c-12.367,-0.03 -0.333,-72.715 -8.546,-63.732c-29.74,32.53 -26.528,54.339 -125.821,74.482Z" style="fill:#fff;fill-opacity:1;"/><path d="M2066.063,555.87c38.545,21.578 61.394,-13.464 66.273,18.972c7.833,52.076 9.935,53.957 5.949,55.155c-1.692,0.508 -87.543,20.797 -131.059,-13.534c-46.401,-36.607 -29.275,-116.208 -32.134,-375.196c-0.007,-0.677 -0.079,-7.175 -4.375,-7.246c-48.691,-0.805 -52.087,2.115 -52.225,-3.847c-1.164,-50.361 0.258,-56.635 5.104,-56.674c17.552,-0.139 51.477,3.45 51.495,-6.129c0.186,-99.911 -2.818,-104.743 7.312,-111.053c64.635,-40.259 69.694,-43.254 69.798,-36.937c0.614,37.199 -1.988,152.558 1.864,153.623c9.363,2.589 75.789,-4.447 75.882,5.543c0.248,26.652 2.043,55.368 -4.825,55.421c-66.699,0.513 -72.8,-5.153 -72.967,5.1c-0.377,23.111 -4.228,259.085 0.756,288.92c2.515,15.056 2.905,18.769 13.151,27.882Z" style="fill:#fff;fill-opacity:1;"/><path d="M3185.611,308.443c0,-130.619 -1.372,-134.856 5.391,-134.949c68.253,-0.94 70.97,-2.878 71.743,2.814c1.244,9.158 0.367,412.039 0.289,447.869c-0.018,8.307 -18.585,6.189 -71.992,6.035c-6.234,-0.018 -5.431,-4.174 -5.431,-321.769Z" style="fill:#fff;"/><path d="M3226.852,0.628c2.901,0.002 35.571,0.029 36.114,3.239c0.879,5.204 0.139,72.145 0.069,78.419c-0.11,9.973 -22.481,7.277 -67.532,7.081c-13.237,-0.058 -10.046,-9.131 -9.891,-83.236c0.019,-8.873 39.155,-5.503 41.24,-5.503Z" style="fill:#fff;"/></g><g transform="matrix(880.46167,0,0,880.46167,2931.746582,1282.736555)"></g><text x="1462.734px" y="1282.737px" style="font-family:'ArialMT', 'Arial', sans-serif;font-size:880.462px;fill:#fff;">dan</text></g></svg>